{
    "asset" : {
        "generator" : "Khronos glTF Blender I/O v1.2.75",
        "version" : "2.0"
    },
    "scene" : 0,
    "scenes" : [
        {
            "name" : "Scene",
            "nodes" : [
                0,
                1,
                2,
                4,
                6,
                8,
                9
            ]
        }
    ],
    "nodes" : [
        {
            "mesh" : 0,
            "name" : "Cube"
        },
        {
            "name" : "Light",
            "rotation" : [
                0.16907575726509094,
                0.7558803558349609,
                -0.27217137813568115,
                0.570947527885437
            ],
            "translation" : [
                4.076245307922363,
                5.903861999511719,
                -1.0054539442062378
            ]
        },
        {
            "name" : "Camera",
            "rotation" : [
                0.483536034822464,
                0.33687159419059753,
                -0.20870360732078552,
                0.7804827094078064
            ],
            "translation" : [
                7.358891487121582,
                4.958309173583984,
                6.925790786743164
            ]
        },
        {
            "name" : "transform2"
        },
        {
            "children" : [
                3
            ],
            "name" : "pCube1",
            "rotation" : [
                0.7071068286895752,
                0,
                0,
                0.7071067094802856
            ],
            "scale" : [
                0.019111109897494316,
                0.0030000002589076757,
                0.042032260447740555
            ],
            "translation" : [
                -0.038228366523981094,
                -0.00558452308177948,
                0
            ]
        },
        {
            "name" : "transform1"
        },
        {
            "children" : [
                5
            ],
            "name" : "pCube2",
            "rotation" : [
                0.7071068286895752,
                0,
                0,
                0.7071067094802856
            ],
            "scale" : [
                0.00561111094430089,
                0.009999999776482582,
                0.008177777752280235
            ],
            "translation" : [
                -0.0382126122713089,
                0.007796605583280325,
                0
            ]
        },
        {
            "mesh" : 1,
            "name" : "pasted__pCube1",
            "scale" : [
                1.9111111164093018,
                0.30000004172325134,
                4.248627185821533
            ],
            "translation" : [
                -3.908345937728882,
                1.071295976638794,
                0.485466331243515
            ]
        },
        {
            "children" : [
                7
            ],
            "name" : "group",
            "rotation" : [
                0.7071068286895752,
                0,
                0,
                0.7071067094802856
            ],
            "scale" : [
                0.009464312344789505,
                0.009999999776482582,
                0.009464312344789505
            ],
            "translation" : [
                -0.0020478463266044855,
                -0.00029915571212768555,
                -0.0007203462300822139
            ]
        },
        {
            "mesh" : 2,
            "name" : "pCube5",
            "rotation" : [
                0.7071068286895752,
                0,
                0,
                0.7071067094802856
            ],
            "scale" : [
                0.009999999776482582,
                0.009999999776482582,
                0.009999999776482582
            ],
            "translation" : [
                0.054344017058610916,
                0,
                0.01048286259174347
            ]
        }
    ],
    "materials" : [
        {
            "doubleSided" : true,
            "emissiveFactor" : [
                0,
                0,
                0
            ],
            "name" : "Material",
            "pbrMetallicRoughness" : {
                "baseColorFactor" : [
                    0.800000011920929,
                    0.800000011920929,
                    0.800000011920929,
                    1
                ],
                "metallicFactor" : 0,
                "roughnessFactor" : 0.4000000059604645
            }
        },
        {
            "doubleSided" : true,
            "emissiveFactor" : [
                0,
                0,
                0
            ],
            "name" : "lambert7",
            "pbrMetallicRoughness" : {
                "baseColorTexture" : {
                    "index" : 0,
                    "texCoord" : 0
                },
                "metallicFactor" : 0,
                "roughnessFactor" : 0.5527864098548889
            }
        },
        {
            "doubleSided" : true,
            "emissiveFactor" : [
                0,
                0,
                0
            ],
            "name" : "lambert6",
            "pbrMetallicRoughness" : {
                "baseColorTexture" : {
                    "index" : 1,
                    "texCoord" : 0
                },
                "metallicFactor" : 0,
                "roughnessFactor" : 0.5527864098548889
            }
        }
    ],
    "meshes" : [
        {
            "name" : "Cube",
            "primitives" : [
                {
                    "attributes" : {
                        "POSITION" : 0,
                        "NORMAL" : 1,
                        "TEXCOORD_0" : 2
                    },
                    "indices" : 3,
                    "material" : 0
                }
            ]
        },
        {
            "name" : "Mesh",
            "primitives" : [
                {
                    "attributes" : {
                        "POSITION" : 4,
                        "NORMAL" : 5,
                        "TEXCOORD_0" : 6
                    },
                    "indices" : 7,
                    "material" : 1
                }
            ]
        },
        {
            "name" : "Mesh.001",
            "primitives" : [
                {
                    "attributes" : {
                        "POSITION" : 8,
                        "NORMAL" : 9,
                        "TEXCOORD_0" : 10
                    },
                    "indices" : 11,
                    "material" : 2
                }
            ]
        }
    ],
    "textures" : [
        {
            "source" : 0
        },
        {
            "source" : 1
        }
    ],
    "images" : [
        {
            "mimeType" : "image/jpeg",
            "name" : "note 9",
            "uri" : "test/note%209.jpg"
        },
        {
            "mimeType" : "image/jpeg",
            "name" : "images (1)",
            "uri" : "test/images%201.jpg"
        }
    ],
    "accessors" : [
        {
            "bufferView" : 0,
            "componentType" : 5126,
            "count" : 24,
            "max" : [
                1,
                1,
                1
            ],
            "min" : [
                -1,
                -1,
                -1
            ],
            "type" : "VEC3"
        },
        {
            "bufferView" : 1,
            "componentType" : 5126,
            "count" : 24,
            "type" : "VEC3"
        },
        {
            "bufferView" : 2,
            "componentType" : 5126,
            "count" : 24,
            "type" : "VEC2"
        },
        {
            "bufferView" : 3,
            "componentType" : 5123,
            "count" : 36,
            "type" : "SCALAR"
        },
        {
            "bufferView" : 4,
            "componentType" : 5126,
            "count" : 252,
            "max" : [
                3.5511159896850586,
                0.5,
                0.5037956237792969
            ],
            "min" : [
                2.5511152744293213,
                -0.5,
                -0.49620431661605835
            ],
            "type" : "VEC3"
        },
        {
            "bufferView" : 5,
            "componentType" : 5126,
            "count" : 252,
            "type" : "VEC3"
        },
        {
            "bufferView" : 6,
            "componentType" : 5126,
            "count" : 252,
            "type" : "VEC2"
        },
        {
            "bufferView" : 7,
            "componentType" : 5123,
            "count" : 1332,
            "type" : "SCALAR"
        },
        {
            "bufferView" : 8,
            "componentType" : 5126,
            "count" : 364,
            "max" : [
                -2.867281436920166,
                0.1499999761581421,
                2.6600654125213623
            ],
            "min" : [
                -4.7783942222595215,
                -0.15000003576278687,
                -1.5431599617004395
            ],
            "type" : "VEC3"
        },
        {
            "bufferView" : 9,
            "componentType" : 5126,
            "count" : 364,
            "type" : "VEC3"
        },
        {
            "bufferView" : 10,
            "componentType" : 5126,
            "count" : 364,
            "type" : "VEC2"
        },
        {
            "bufferView" : 11,
            "componentType" : 5123,
            "count" : 1680,
            "type" : "SCALAR"
        }
    ],
    "bufferViews" : [
        {
            "buffer" : 0,
            "byteLength" : 288,
            "byteOffset" : 0
        },
        {
            "buffer" : 0,
            "byteLength" : 288,
            "byteOffset" : 288
        },
        {
            "buffer" : 0,
            "byteLength" : 192,
            "byteOffset" : 576
        },
        {
            "buffer" : 0,
            "byteLength" : 72,
            "byteOffset" : 768
        },
        {
            "buffer" : 0,
            "byteLength" : 3024,
            "byteOffset" : 840
        },
        {
            "buffer" : 0,
            "byteLength" : 3024,
            "byteOffset" : 3864
        },
        {
            "buffer" : 0,
            "byteLength" : 2016,
            "byteOffset" : 6888
        },
        {
            "buffer" : 0,
            "byteLength" : 2664,
            "byteOffset" : 8904
        },
        {
            "buffer" : 0,
            "byteLength" : 4368,
            "byteOffset" : 11568
        },
        {
            "buffer" : 0,
            "byteLength" : 4368,
            "byteOffset" : 15936
        },
        {
            "buffer" : 0,
            "byteLength" : 2912,
            "byteOffset" : 20304
        },
        {
            "buffer" : 0,
            "byteLength" : 3360,
            "byteOffset" : 23216
        }
    ],
    "buffers" : [
        {
            "byteLength" : 26576,
            "uri" : "test.bin"
        }
    ]
}
